<?xml version="1.0" encoding="UTF-8"?>
<svg xmlns="http://www.w3.org/2000/svg" version="1.1" width="200" height="200" viewBox="0 0 200 200"><rect x="0" y="0" width="200" height="200" fill="#ffffff"/><g transform="scale(6.061)"><g transform="translate(0,0)"><path fill-rule="evenodd" d="M10 0L10 1L11 1L11 2L12 2L12 1L14 1L14 0ZM15 0L15 2L16 2L16 3L13 3L13 4L14 4L14 5L13 5L13 6L12 6L12 7L13 7L13 6L14 6L14 7L15 7L15 9L14 9L14 8L13 8L13 9L14 9L14 10L12 10L12 9L11 9L11 8L10 8L10 7L11 7L11 6L10 6L10 5L9 5L9 6L8 6L8 7L9 7L9 8L10 8L10 9L11 9L11 12L10 12L10 10L9 10L9 9L8 9L8 8L6 8L6 9L5 9L5 8L3 8L3 9L2 9L2 10L0 10L0 14L1 14L1 17L0 17L0 18L1 18L1 19L0 19L0 20L2 20L2 21L0 21L0 25L5 25L5 24L6 24L6 25L8 25L8 27L9 27L9 28L8 28L8 30L9 30L9 28L11 28L11 29L10 29L10 31L11 31L11 32L12 32L12 33L15 33L15 30L14 30L14 32L12 32L12 28L13 28L13 26L11 26L11 25L9 25L9 23L10 23L10 22L14 22L14 23L15 23L15 22L16 22L16 21L17 21L17 23L16 23L16 24L17 24L17 25L16 25L16 26L18 26L18 25L20 25L20 27L14 27L14 29L16 29L16 31L19 31L19 30L21 30L21 31L20 31L20 32L17 32L17 33L20 33L20 32L21 32L21 31L22 31L22 33L26 33L26 31L25 31L25 32L23 32L23 29L27 29L27 30L28 30L28 31L29 31L29 32L28 32L28 33L30 33L30 32L33 32L33 29L32 29L32 28L33 28L33 27L32 27L32 28L31 28L31 26L32 26L32 25L31 25L31 26L30 26L30 27L29 27L29 25L30 25L30 24L33 24L33 22L32 22L32 21L33 21L33 16L32 16L32 17L31 17L31 18L30 18L30 16L31 16L31 14L32 14L32 13L30 13L30 12L33 12L33 10L31 10L31 8L29 8L29 9L27 9L27 12L26 12L26 13L25 13L25 14L26 14L26 13L27 13L27 16L26 16L26 15L25 15L25 16L24 16L24 15L23 15L23 16L22 16L22 18L18 18L18 17L21 17L21 15L19 15L19 14L18 14L18 13L21 13L21 14L24 14L24 13L23 13L23 12L25 12L25 11L26 11L26 9L25 9L25 8L24 8L24 7L25 7L25 3L24 3L24 2L23 2L23 4L22 4L22 1L23 1L23 0L21 0L21 2L19 2L19 3L17 3L17 2L16 2L16 1L17 1L17 0ZM18 0L18 1L19 1L19 0ZM24 0L24 1L25 1L25 0ZM8 2L8 4L10 4L10 3L9 3L9 2ZM19 3L19 4L20 4L20 6L19 6L19 7L18 7L18 6L17 6L17 7L18 7L18 8L21 8L21 9L18 9L18 10L21 10L21 11L18 11L18 12L17 12L17 9L15 9L15 10L14 10L14 11L13 11L13 12L12 12L12 13L10 13L10 12L7 12L7 11L6 11L6 10L8 10L8 9L6 9L6 10L5 10L5 9L4 9L4 11L3 11L3 10L2 10L2 11L3 11L3 13L2 13L2 12L1 12L1 14L2 14L2 15L3 15L3 17L1 17L1 18L2 18L2 19L5 19L5 20L3 20L3 21L2 21L2 22L1 22L1 24L5 24L5 23L6 23L6 24L7 24L7 23L8 23L8 21L9 21L9 22L10 22L10 19L12 19L12 20L14 20L14 22L15 22L15 21L16 21L16 20L17 20L17 21L19 21L19 20L18 20L18 18L17 18L17 15L18 15L18 16L19 16L19 15L18 15L18 14L17 14L17 15L16 15L16 13L18 13L18 12L21 12L21 13L22 13L22 12L23 12L23 11L22 11L22 10L23 10L23 7L24 7L24 6L23 6L23 5L24 5L24 4L23 4L23 5L22 5L22 4L20 4L20 3ZM17 4L17 5L18 5L18 4ZM15 5L15 7L16 7L16 5ZM21 5L21 6L20 6L20 7L21 7L21 6L22 6L22 7L23 7L23 6L22 6L22 5ZM9 6L9 7L10 7L10 6ZM21 9L21 10L22 10L22 9ZM24 9L24 11L25 11L25 9ZM29 9L29 10L28 10L28 11L29 11L29 12L28 12L28 14L29 14L29 15L30 15L30 14L29 14L29 12L30 12L30 11L31 11L31 10L30 10L30 9ZM4 11L4 13L3 13L3 15L5 15L5 16L4 16L4 17L3 17L3 18L5 18L5 19L7 19L7 20L6 20L6 21L5 21L5 22L6 22L6 23L7 23L7 22L6 22L6 21L7 21L7 20L9 20L9 19L10 19L10 18L11 18L11 17L13 17L13 16L14 16L14 15L13 15L13 16L9 16L9 15L11 15L11 14L8 14L8 15L7 15L7 14L4 14L4 13L7 13L7 12L5 12L5 11ZM14 11L14 13L12 13L12 14L14 14L14 13L15 13L15 11ZM6 15L6 16L7 16L7 15ZM8 16L8 18L7 18L7 17L5 17L5 18L7 18L7 19L9 19L9 16ZM15 16L15 18L13 18L13 19L15 19L15 20L16 20L16 19L17 19L17 18L16 18L16 16ZM23 16L23 18L22 18L22 19L21 19L21 21L20 21L20 24L21 24L21 28L22 28L22 29L21 29L21 30L22 30L22 29L23 29L23 28L22 28L22 26L24 26L24 24L28 24L28 23L29 23L29 24L30 24L30 23L31 23L31 22L30 22L30 21L31 21L31 20L32 20L32 18L31 18L31 20L30 20L30 21L29 21L29 20L28 20L28 21L29 21L29 22L27 22L27 20L26 20L26 19L29 19L29 18L27 18L27 17L28 17L28 16L27 16L27 17L26 17L26 19L25 19L25 21L24 21L24 23L23 23L23 24L22 24L22 20L23 20L23 18L24 18L24 16ZM3 21L3 23L4 23L4 21ZM18 22L18 24L19 24L19 22ZM26 22L26 23L27 23L27 22ZM12 24L12 25L14 25L14 26L15 26L15 25L14 25L14 24ZM25 25L25 28L28 28L28 25ZM9 26L9 27L11 27L11 28L12 28L12 27L11 27L11 26ZM26 26L26 27L27 27L27 26ZM16 28L16 29L18 29L18 30L19 30L19 29L18 29L18 28ZM30 28L30 29L31 29L31 30L32 30L32 29L31 29L31 28ZM28 29L28 30L29 30L29 31L30 31L30 30L29 30L29 29ZM9 32L9 33L10 33L10 32ZM0 0L0 7L7 7L7 0ZM1 1L1 6L6 6L6 1ZM2 2L2 5L5 5L5 2ZM26 0L26 7L33 7L33 0ZM27 1L27 6L32 6L32 1ZM28 2L28 5L31 5L31 2ZM0 26L0 33L7 33L7 26ZM1 27L1 32L6 32L6 27ZM2 28L2 31L5 31L5 28Z" fill="#000000"/></g></g></svg>
