<?xml version="1.0" encoding="UTF-8"?>
<svg xmlns="http://www.w3.org/2000/svg" version="1.1" width="200" height="200" viewBox="0 0 200 200"><rect x="0" y="0" width="200" height="200" fill="#ffffff"/><g transform="scale(5.405)"><g transform="translate(0,0)"><path fill-rule="evenodd" d="M8 0L8 3L9 3L9 4L10 4L10 5L8 5L8 9L10 9L10 10L12 10L12 11L11 11L11 13L10 13L10 15L11 15L11 19L15 19L15 20L13 20L13 22L12 22L12 20L10 20L10 22L11 22L11 23L8 23L8 21L7 21L7 20L9 20L9 19L10 19L10 16L9 16L9 15L8 15L8 14L9 14L9 12L8 12L8 11L9 11L9 10L5 10L5 11L7 11L7 12L5 12L5 14L4 14L4 15L2 15L2 13L4 13L4 12L2 12L2 13L1 13L1 15L0 15L0 16L1 16L1 17L0 17L0 18L2 18L2 17L3 17L3 19L1 19L1 20L2 20L2 21L1 21L1 24L0 24L0 29L1 29L1 26L2 26L2 29L3 29L3 27L7 27L7 26L8 26L8 24L9 24L9 27L8 27L8 28L4 28L4 29L8 29L8 30L9 30L9 29L10 29L10 31L9 31L9 32L8 32L8 35L10 35L10 36L9 36L9 37L11 37L11 36L12 36L12 37L13 37L13 36L12 36L12 35L14 35L14 37L15 37L15 35L14 35L14 34L12 34L12 33L14 33L14 32L15 32L15 33L16 33L16 34L17 34L17 36L18 36L18 35L19 35L19 36L20 36L20 34L21 34L21 37L23 37L23 36L22 36L22 34L21 34L21 33L24 33L24 34L25 34L25 35L24 35L24 37L28 37L28 36L30 36L30 37L37 37L37 34L36 34L36 36L33 36L33 35L34 35L34 34L35 34L35 32L36 32L36 33L37 33L37 32L36 32L36 31L37 31L37 30L35 30L35 32L34 32L34 33L33 33L33 31L34 31L34 30L33 30L33 29L34 29L34 27L33 27L33 26L35 26L35 29L37 29L37 28L36 28L36 27L37 27L37 25L36 25L36 23L37 23L37 22L36 22L36 21L37 21L37 20L36 20L36 19L37 19L37 18L35 18L35 16L36 16L36 17L37 17L37 14L35 14L35 13L36 13L36 11L37 11L37 10L35 10L35 12L34 12L34 11L33 11L33 12L32 12L32 13L31 13L31 11L32 11L32 10L31 10L31 9L32 9L32 8L29 8L29 4L28 4L28 3L25 3L25 1L24 1L24 0L23 0L23 1L21 1L21 0L17 0L17 2L15 2L15 1L16 1L16 0L14 0L14 2L13 2L13 0L12 0L12 2L11 2L11 0ZM28 0L28 1L26 1L26 2L29 2L29 0ZM9 1L9 3L10 3L10 4L12 4L12 5L11 5L11 7L10 7L10 6L9 6L9 7L10 7L10 9L12 9L12 10L13 10L13 11L12 11L12 13L11 13L11 14L12 14L12 15L13 15L13 16L12 16L12 17L13 17L13 18L17 18L17 19L16 19L16 20L17 20L17 21L15 21L15 22L14 22L14 24L15 24L15 25L13 25L13 24L12 24L12 23L11 23L11 24L12 24L12 25L10 25L10 26L12 26L12 25L13 25L13 27L14 27L14 30L13 30L13 29L12 29L12 27L11 27L11 28L10 28L10 29L11 29L11 32L9 32L9 33L12 33L12 31L13 31L13 32L14 32L14 31L15 31L15 29L16 29L16 28L17 28L17 27L18 27L18 29L17 29L17 31L18 31L18 32L16 32L16 33L17 33L17 34L18 34L18 33L20 33L20 32L19 32L19 31L18 31L18 29L19 29L19 27L20 27L20 28L21 28L21 26L20 26L20 25L21 25L21 23L19 23L19 24L20 24L20 25L18 25L18 22L19 22L19 21L20 21L20 20L23 20L23 22L22 22L22 25L23 25L23 26L22 26L22 27L23 27L23 26L25 26L25 25L26 25L26 26L27 26L27 25L28 25L28 26L29 26L29 27L28 27L28 28L31 28L31 27L32 27L32 26L30 26L30 25L33 25L33 24L35 24L35 23L36 23L36 22L33 22L33 21L32 21L32 22L31 22L31 21L30 21L30 23L29 23L29 24L30 24L30 25L28 25L28 23L26 23L26 24L25 24L25 21L24 21L24 20L23 20L23 19L21 19L21 18L24 18L24 19L25 19L25 20L26 20L26 19L27 19L27 21L26 21L26 22L29 22L29 20L28 20L28 19L27 19L27 18L28 18L28 17L26 17L26 18L24 18L24 15L25 15L25 16L27 16L27 14L28 14L28 11L29 11L29 13L30 13L30 14L29 14L29 15L28 15L28 16L29 16L29 15L30 15L30 16L31 16L31 15L32 15L32 16L33 16L33 17L32 17L32 18L34 18L34 19L33 19L33 20L35 20L35 21L36 21L36 20L35 20L35 18L34 18L34 16L35 16L35 14L34 14L34 15L32 15L32 14L33 14L33 13L34 13L34 12L33 12L33 13L32 13L32 14L31 14L31 13L30 13L30 10L27 10L27 11L26 11L26 10L25 10L25 12L27 12L27 13L26 13L26 14L24 14L24 12L23 12L23 11L22 11L22 10L23 10L23 8L22 8L22 6L23 6L23 7L24 7L24 9L29 9L29 8L28 8L28 6L27 6L27 5L28 5L28 4L25 4L25 7L24 7L24 6L23 6L23 5L24 5L24 3L23 3L23 2L22 2L22 3L19 3L19 4L16 4L16 3L14 3L14 4L13 4L13 3L10 3L10 1ZM18 1L18 2L19 2L19 1ZM14 4L14 5L13 5L13 6L12 6L12 7L11 7L11 8L13 8L13 6L14 6L14 7L15 7L15 11L13 11L13 12L14 12L14 13L13 13L13 14L14 14L14 16L16 16L16 17L18 17L18 19L17 19L17 20L20 20L20 19L19 19L19 18L21 18L21 17L23 17L23 16L22 16L22 14L23 14L23 13L20 13L20 12L21 12L21 10L22 10L22 8L21 8L21 6L22 6L22 5L23 5L23 4L22 4L22 5L21 5L21 4L19 4L19 5L18 5L18 9L20 9L20 8L21 8L21 10L20 10L20 12L18 12L18 11L19 11L19 10L17 10L17 8L16 8L16 7L17 7L17 6L16 6L16 7L15 7L15 6L14 6L14 5L16 5L16 4ZM19 6L19 7L20 7L20 6ZM26 6L26 8L27 8L27 6ZM2 8L2 9L1 9L1 10L2 10L2 11L4 11L4 10L2 10L2 9L5 9L5 8ZM6 8L6 9L7 9L7 8ZM34 8L34 9L33 9L33 10L34 10L34 9L37 9L37 8ZM13 9L13 10L14 10L14 9ZM16 10L16 12L15 12L15 14L17 14L17 15L18 15L18 14L17 14L17 13L18 13L18 12L17 12L17 10ZM16 12L16 13L17 13L17 12ZM6 13L6 14L8 14L8 13ZM19 13L19 15L20 15L20 16L19 16L19 17L21 17L21 14L20 14L20 13ZM30 14L30 15L31 15L31 14ZM6 15L6 16L5 16L5 18L4 18L4 19L6 19L6 20L4 20L4 22L3 22L3 21L2 21L2 23L4 23L4 25L3 25L3 26L4 26L4 25L6 25L6 26L7 26L7 25L6 25L6 24L7 24L7 23L6 23L6 22L7 22L7 21L6 21L6 20L7 20L7 19L9 19L9 18L8 18L8 17L9 17L9 16L7 16L7 15ZM3 16L3 17L4 17L4 16ZM6 16L6 17L7 17L7 16ZM30 17L30 18L29 18L29 19L31 19L31 17ZM6 18L6 19L7 19L7 18ZM5 21L5 22L6 22L6 21ZM17 21L17 22L18 22L18 21ZM15 22L15 23L16 23L16 25L17 25L17 23L16 23L16 22ZM5 23L5 24L6 24L6 23ZM23 23L23 24L24 24L24 25L25 25L25 24L24 24L24 23ZM31 23L31 24L32 24L32 23ZM26 24L26 25L27 25L27 24ZM14 26L14 27L15 27L15 28L16 28L16 27L17 27L17 26L16 26L16 27L15 27L15 26ZM24 27L24 28L26 28L26 27ZM8 28L8 29L9 29L9 28ZM20 29L20 31L22 31L22 32L23 32L23 31L24 31L24 33L25 33L25 32L26 32L26 31L24 31L24 30L21 30L21 29ZM26 29L26 30L27 30L27 32L28 32L28 30L27 30L27 29ZM29 29L29 32L32 32L32 29ZM30 30L30 31L31 31L31 30ZM28 33L28 34L27 34L27 35L31 35L31 36L32 36L32 35L33 35L33 34L32 34L32 35L31 35L31 34L30 34L30 33ZM10 34L10 35L11 35L11 34ZM25 35L25 36L26 36L26 35ZM0 0L0 7L7 7L7 0ZM1 1L1 6L6 6L6 1ZM2 2L2 5L5 5L5 2ZM30 0L30 7L37 7L37 0ZM31 1L31 6L36 6L36 1ZM32 2L32 5L35 5L35 2ZM0 30L0 37L7 37L7 30ZM1 31L1 36L6 36L6 31ZM2 32L2 35L5 35L5 32Z" fill="#000000"/></g></g></svg>
