<?xml version="1.0" encoding="UTF-8"?>
<svg xmlns="http://www.w3.org/2000/svg" version="1.1" width="200" height="200" viewBox="0 0 200 200"><rect x="0" y="0" width="200" height="200" fill="#ffffff"/><g transform="scale(5.405)"><g transform="translate(0,0)"><path fill-rule="evenodd" d="M8 0L8 1L9 1L9 0ZM10 0L10 2L9 2L9 3L8 3L8 4L9 4L9 6L8 6L8 7L9 7L9 8L8 8L8 9L7 9L7 8L4 8L4 9L3 9L3 8L2 8L2 9L0 9L0 10L2 10L2 11L0 11L0 12L2 12L2 13L3 13L3 12L4 12L4 13L7 13L7 14L1 14L1 13L0 13L0 14L1 14L1 15L2 15L2 16L1 16L1 17L2 17L2 16L3 16L3 18L2 18L2 20L4 20L4 21L3 21L3 22L2 22L2 23L1 23L1 22L0 22L0 24L3 24L3 25L1 25L1 26L0 26L0 27L1 27L1 28L0 28L0 29L1 29L1 28L2 28L2 29L4 29L4 28L3 28L3 27L4 27L4 26L5 26L5 29L8 29L8 30L9 30L9 28L10 28L10 31L8 31L8 33L9 33L9 34L8 34L8 35L9 35L9 34L10 34L10 36L11 36L11 32L12 32L12 31L11 31L11 30L13 30L13 29L15 29L15 30L14 30L14 31L13 31L13 33L12 33L12 34L13 34L13 35L12 35L12 37L13 37L13 36L15 36L15 37L17 37L17 36L15 36L15 35L18 35L18 36L19 36L19 35L20 35L20 37L21 37L21 36L22 36L22 35L23 35L23 36L24 36L24 37L26 37L26 36L28 36L28 37L29 37L29 34L30 34L30 33L32 33L32 34L31 34L31 36L30 36L30 37L32 37L32 36L33 36L33 34L34 34L34 35L35 35L35 37L37 37L37 36L36 36L36 35L37 35L37 26L35 26L35 27L36 27L36 28L34 28L34 27L32 27L32 28L31 28L31 27L29 27L29 28L28 28L28 27L26 27L26 26L25 26L25 23L26 23L26 22L25 22L25 21L26 21L26 20L27 20L27 21L30 21L30 22L29 22L29 23L28 23L28 24L27 24L27 26L28 26L28 24L29 24L29 26L30 26L30 24L31 24L31 23L30 23L30 22L31 22L31 21L32 21L32 20L33 20L33 19L32 19L32 18L31 18L31 17L32 17L32 16L31 16L31 12L32 12L32 11L33 11L33 14L34 14L34 15L37 15L37 13L36 13L36 12L37 12L37 8L36 8L36 9L35 9L35 10L34 10L34 8L33 8L33 10L32 10L32 9L31 9L31 10L30 10L30 11L29 11L29 9L30 9L30 8L29 8L29 5L28 5L28 3L29 3L29 1L28 1L28 0L26 0L26 1L25 1L25 2L23 2L23 1L24 1L24 0L20 0L20 1L19 1L19 0L16 0L16 1L18 1L18 2L17 2L17 3L16 3L16 5L17 5L17 6L16 6L16 7L15 7L15 5L14 5L14 4L13 4L13 3L14 3L14 2L15 2L15 1L13 1L13 2L12 2L12 0ZM10 2L10 5L11 5L11 2ZM20 2L20 5L19 5L19 3L17 3L17 5L18 5L18 6L17 6L17 7L16 7L16 8L15 8L15 11L16 11L16 10L17 10L17 9L18 9L18 8L20 8L20 5L21 5L21 9L20 9L20 10L19 10L19 11L21 11L21 12L23 12L23 13L24 13L24 14L23 14L23 15L22 15L22 14L21 14L21 15L20 15L20 14L19 14L19 13L18 13L18 11L17 11L17 12L16 12L16 13L15 13L15 12L14 12L14 6L13 6L13 7L12 7L12 6L11 6L11 7L10 7L10 6L9 6L9 7L10 7L10 8L9 8L9 9L8 9L8 11L6 11L6 12L8 12L8 13L9 13L9 12L12 12L12 13L13 13L13 14L12 14L12 15L11 15L11 14L10 14L10 15L11 15L11 16L8 16L8 15L6 15L6 16L5 16L5 21L4 21L4 22L5 22L5 23L4 23L4 24L5 24L5 26L7 26L7 27L6 27L6 28L7 28L7 27L8 27L8 26L9 26L9 27L11 27L11 24L9 24L9 25L6 25L6 24L8 24L8 23L6 23L6 22L10 22L10 21L11 21L11 22L12 22L12 21L13 21L13 22L14 22L14 21L15 21L15 23L12 23L12 26L13 26L13 27L12 27L12 28L11 28L11 29L12 29L12 28L16 28L16 29L17 29L17 28L18 28L18 30L15 30L15 31L17 31L17 33L18 33L18 34L20 34L20 35L22 35L22 34L23 34L23 35L24 35L24 36L25 36L25 34L26 34L26 35L27 35L27 34L26 34L26 33L28 33L28 34L29 34L29 33L28 33L28 31L27 31L27 29L28 29L28 28L26 28L26 29L23 29L23 28L24 28L24 27L23 27L23 28L21 28L21 27L22 27L22 26L23 26L23 25L24 25L24 23L25 23L25 22L23 22L23 25L22 25L22 23L21 23L21 22L20 22L20 21L24 21L24 20L25 20L25 19L26 19L26 18L27 18L27 20L28 20L28 19L29 19L29 20L32 20L32 19L31 19L31 18L30 18L30 17L29 17L29 16L30 16L30 12L31 12L31 11L30 11L30 12L28 12L28 11L27 11L27 10L26 10L26 8L25 8L25 9L24 9L24 10L25 10L25 11L23 11L23 10L22 10L22 11L21 11L21 9L23 9L23 8L24 8L24 6L25 6L25 7L26 7L26 6L27 6L27 8L28 8L28 6L27 6L27 5L26 5L26 2L25 2L25 3L24 3L24 4L23 4L23 3L22 3L22 2ZM12 4L12 5L13 5L13 4ZM24 4L24 5L25 5L25 6L26 6L26 5L25 5L25 4ZM18 6L18 7L17 7L17 8L18 8L18 7L19 7L19 6ZM22 6L22 7L23 7L23 6ZM10 8L10 10L9 10L9 11L11 11L11 8ZM4 9L4 10L5 10L5 9ZM6 9L6 10L7 10L7 9ZM12 9L12 12L13 12L13 9ZM4 11L4 12L5 12L5 11ZM25 11L25 12L24 12L24 13L26 13L26 11ZM34 11L34 13L35 13L35 12L36 12L36 11ZM27 12L27 13L28 13L28 14L29 14L29 13L28 13L28 12ZM14 13L14 14L15 14L15 13ZM17 14L17 15L13 15L13 16L14 16L14 17L13 17L13 18L12 18L12 19L13 19L13 21L14 21L14 17L16 17L16 16L17 16L17 15L19 15L19 14ZM26 14L26 15L25 15L25 16L24 16L24 15L23 15L23 16L24 16L24 17L23 17L23 19L24 19L24 17L26 17L26 15L27 15L27 16L28 16L28 15L27 15L27 14ZM21 15L21 16L20 16L20 17L19 17L19 16L18 16L18 17L17 17L17 18L18 18L18 19L20 19L20 20L19 20L19 21L18 21L18 23L17 23L17 22L16 22L16 24L13 24L13 26L14 26L14 25L15 25L15 26L16 26L16 28L17 28L17 26L20 26L20 27L21 27L21 26L22 26L22 25L21 25L21 24L20 24L20 22L19 22L19 21L20 21L20 20L21 20L21 16L22 16L22 15ZM6 16L6 17L7 17L7 16ZM11 16L11 17L12 17L12 16ZM33 16L33 17L34 17L34 19L36 19L36 24L35 24L35 25L36 25L36 24L37 24L37 16L36 16L36 17L34 17L34 16ZM9 17L9 18L8 18L8 19L7 19L7 18L6 18L6 19L7 19L7 20L6 20L6 21L10 21L10 20L8 20L8 19L9 19L9 18L10 18L10 19L11 19L11 18L10 18L10 17ZM28 17L28 18L29 18L29 17ZM3 18L3 19L4 19L4 18ZM0 19L0 20L1 20L1 19ZM15 19L15 20L16 20L16 19ZM33 21L33 22L32 22L32 23L35 23L35 21ZM18 23L18 24L16 24L16 25L18 25L18 24L19 24L19 23ZM32 24L32 26L34 26L34 25L33 25L33 24ZM9 25L9 26L10 26L10 25ZM1 26L1 27L2 27L2 26ZM18 27L18 28L19 28L19 29L20 29L20 28L19 28L19 27ZM33 28L33 32L34 32L34 33L36 33L36 31L34 31L34 30L35 30L35 29L34 29L34 28ZM21 29L21 30L18 30L18 31L20 31L20 32L22 32L22 31L23 31L23 29ZM29 29L29 32L32 32L32 29ZM24 30L24 32L23 32L23 34L24 34L24 32L25 32L25 33L26 33L26 32L27 32L27 31L26 31L26 30ZM30 30L30 31L31 31L31 30ZM10 31L10 32L9 32L9 33L10 33L10 32L11 32L11 31ZM15 32L15 33L14 33L14 34L16 34L16 32ZM18 32L18 33L19 33L19 32ZM20 33L20 34L21 34L21 33ZM35 34L35 35L36 35L36 34ZM0 0L0 7L7 7L7 0ZM1 1L1 6L6 6L6 1ZM2 2L2 5L5 5L5 2ZM30 0L30 7L37 7L37 0ZM31 1L31 6L36 6L36 1ZM32 2L32 5L35 5L35 2ZM0 30L0 37L7 37L7 30ZM1 31L1 36L6 36L6 31ZM2 32L2 35L5 35L5 32Z" fill="#000000"/></g></g></svg>
