<?xml version="1.0" encoding="UTF-8"?>
<svg xmlns="http://www.w3.org/2000/svg" version="1.1" width="200" height="200" viewBox="0 0 200 200"><rect x="0" y="0" width="200" height="200" fill="#ffffff"/><g transform="scale(5.405)"><g transform="translate(0,0)"><path fill-rule="evenodd" d="M9 0L9 2L8 2L8 4L9 4L9 2L12 2L12 3L13 3L13 5L14 5L14 7L15 7L15 6L16 6L16 7L17 7L17 6L18 6L18 9L19 9L19 6L20 6L20 7L21 7L21 5L24 5L24 7L23 7L23 6L22 6L22 7L23 7L23 9L22 9L22 11L20 11L20 13L19 13L19 12L17 12L17 10L16 10L16 12L15 12L15 10L14 10L14 9L13 9L13 10L12 10L12 9L11 9L11 8L13 8L13 6L12 6L12 5L11 5L11 3L10 3L10 5L11 5L11 6L10 6L10 7L11 7L11 8L9 8L9 9L8 9L8 8L6 8L6 9L8 9L8 10L6 10L6 11L4 11L4 10L5 10L5 8L3 8L3 9L1 9L1 10L3 10L3 11L2 11L2 12L1 12L1 13L2 13L2 14L4 14L4 13L5 13L5 14L6 14L6 15L4 15L4 17L5 17L5 16L6 16L6 17L7 17L7 18L2 18L2 15L0 15L0 16L1 16L1 17L0 17L0 18L1 18L1 19L4 19L4 20L1 20L1 21L0 21L0 29L1 29L1 27L3 27L3 28L4 28L4 29L5 29L5 27L8 27L8 26L9 26L9 27L10 27L10 26L9 26L9 25L10 25L10 24L9 24L9 22L10 22L10 21L8 21L8 19L9 19L9 20L10 20L10 19L11 19L11 17L10 17L10 16L13 16L13 15L16 15L16 12L17 12L17 13L18 13L18 14L19 14L19 15L17 15L17 16L16 16L16 17L15 17L15 16L14 16L14 17L15 17L15 19L13 19L13 17L12 17L12 20L14 20L14 21L15 21L15 24L16 24L16 22L17 22L17 25L14 25L14 24L13 24L13 22L12 22L12 21L11 21L11 22L12 22L12 23L11 23L11 24L13 24L13 25L12 25L12 26L11 26L11 27L12 27L12 28L11 28L11 30L9 30L9 29L10 29L10 28L6 28L6 29L8 29L8 31L9 31L9 32L8 32L8 34L9 34L9 37L10 37L10 34L11 34L11 33L10 33L10 31L12 31L12 33L13 33L13 32L14 32L14 31L16 31L16 32L15 32L15 33L14 33L14 34L13 34L13 35L11 35L11 36L12 36L12 37L14 37L14 36L16 36L16 37L18 37L18 36L17 36L17 35L15 35L15 34L16 34L16 33L17 33L17 32L18 32L18 33L19 33L19 34L18 34L18 35L19 35L19 36L20 36L20 37L22 37L22 36L23 36L23 37L25 37L25 35L26 35L26 36L27 36L27 37L31 37L31 35L32 35L32 36L33 36L33 37L34 37L34 36L36 36L36 37L37 37L37 34L35 34L35 35L34 35L34 34L32 34L32 33L33 33L33 32L34 32L34 31L35 31L35 32L36 32L36 33L37 33L37 32L36 32L36 31L37 31L37 30L36 30L36 29L37 29L37 28L36 28L36 27L37 27L37 25L35 25L35 26L34 26L34 28L32 28L32 27L33 27L33 26L31 26L31 25L34 25L34 24L35 24L35 23L37 23L37 22L36 22L36 21L37 21L37 20L36 20L36 19L37 19L37 18L36 18L36 17L37 17L37 14L35 14L35 13L34 13L34 14L33 14L33 13L32 13L32 12L31 12L31 11L33 11L33 9L34 9L34 10L35 10L35 8L33 8L33 9L32 9L32 10L31 10L31 9L29 9L29 6L28 6L28 7L27 7L27 6L26 6L26 7L25 7L25 4L26 4L26 5L27 5L27 4L26 4L26 1L27 1L27 0L25 0L25 1L23 1L23 0L22 0L22 2L21 2L21 0L18 0L18 1L17 1L17 0L15 0L15 2L14 2L14 0L12 0L12 1L11 1L11 0ZM16 1L16 5L17 5L17 1ZM18 1L18 2L19 2L19 4L18 4L18 5L19 5L19 4L20 4L20 5L21 5L21 4L20 4L20 3L21 3L21 2L20 2L20 1ZM28 1L28 5L29 5L29 1ZM13 2L13 3L14 3L14 2ZM23 3L23 4L24 4L24 3ZM14 4L14 5L15 5L15 4ZM8 6L8 7L9 7L9 6ZM11 6L11 7L12 7L12 6ZM24 7L24 8L25 8L25 7ZM26 7L26 10L25 10L25 11L24 11L24 10L23 10L23 16L24 16L24 15L25 15L25 16L26 16L26 18L27 18L27 16L28 16L28 15L30 15L30 16L29 16L29 17L28 17L28 19L29 19L29 18L30 18L30 19L31 19L31 21L30 21L30 22L29 22L29 23L28 23L28 24L27 24L27 22L26 22L26 25L20 25L20 24L25 24L25 21L26 21L26 20L27 20L27 21L28 21L28 20L27 20L27 19L26 19L26 20L25 20L25 21L24 21L24 20L23 20L23 19L25 19L25 18L22 18L22 22L21 22L21 21L20 21L20 20L17 20L17 18L16 18L16 19L15 19L15 20L16 20L16 21L18 21L18 22L19 22L19 21L20 21L20 23L19 23L19 25L17 25L17 27L15 27L15 28L17 28L17 29L14 29L14 30L16 30L16 31L18 31L18 32L20 32L20 34L19 34L19 35L20 35L20 36L22 36L22 35L23 35L23 34L24 34L24 35L25 35L25 34L24 34L24 33L26 33L26 35L27 35L27 36L30 36L30 35L31 35L31 34L30 34L30 33L29 33L29 34L28 34L28 33L26 33L26 32L27 32L27 31L28 31L28 29L27 29L27 28L28 28L28 27L29 27L29 28L31 28L31 26L30 26L30 25L31 25L31 23L32 23L32 24L33 24L33 23L35 23L35 21L36 21L36 20L35 20L35 19L36 19L36 18L35 18L35 17L34 17L34 16L32 16L32 18L31 18L31 17L30 17L30 16L31 16L31 15L30 15L30 14L32 14L32 13L30 13L30 14L28 14L28 15L27 15L27 14L26 14L26 13L29 13L29 9L28 9L28 8L27 8L27 7ZM15 8L15 9L17 9L17 8ZM3 9L3 10L4 10L4 9ZM10 9L10 10L8 10L8 12L7 12L7 11L6 11L6 12L5 12L5 13L6 13L6 14L7 14L7 15L6 15L6 16L7 16L7 17L8 17L8 16L9 16L9 14L10 14L10 15L11 15L11 14L12 14L12 15L13 15L13 14L15 14L15 12L14 12L14 13L13 13L13 11L14 11L14 10L13 10L13 11L11 11L11 9ZM20 9L20 10L21 10L21 9ZM18 10L18 11L19 11L19 10ZM36 10L36 11L37 11L37 10ZM3 11L3 12L2 12L2 13L3 13L3 12L4 12L4 11ZM9 11L9 12L10 12L10 14L11 14L11 11ZM27 11L27 12L28 12L28 11ZM34 11L34 12L35 12L35 11ZM6 12L6 13L7 13L7 14L8 14L8 13L7 13L7 12ZM21 12L21 13L20 13L20 15L21 15L21 16L22 16L22 15L21 15L21 14L22 14L22 12ZM24 12L24 14L25 14L25 15L26 15L26 16L27 16L27 15L26 15L26 14L25 14L25 12ZM7 15L7 16L8 16L8 15ZM19 16L19 18L20 18L20 19L21 19L21 17L20 17L20 16ZM9 17L9 18L10 18L10 17ZM33 17L33 20L32 20L32 21L31 21L31 22L32 22L32 23L33 23L33 21L34 21L34 19L35 19L35 18L34 18L34 17ZM6 19L6 20L5 20L5 21L6 21L6 22L7 22L7 21L6 21L6 20L7 20L7 19ZM3 21L3 24L2 24L2 26L3 26L3 27L5 27L5 26L4 26L4 25L3 25L3 24L4 24L4 23L5 23L5 24L7 24L7 25L6 25L6 26L8 26L8 24L7 24L7 23L5 23L5 22L4 22L4 21ZM22 22L22 23L24 23L24 22ZM29 23L29 24L30 24L30 23ZM19 25L19 29L17 29L17 30L20 30L20 31L21 31L21 30L20 30L20 28L21 28L21 29L23 29L23 28L24 28L24 30L22 30L22 31L23 31L23 33L22 33L22 32L21 32L21 34L20 34L20 35L22 35L22 34L23 34L23 33L24 33L24 31L25 31L25 32L26 32L26 31L25 31L25 30L26 30L26 28L24 28L24 27L25 27L25 26L21 26L21 27L20 27L20 25ZM26 25L26 27L28 27L28 26L27 26L27 25ZM17 27L17 28L18 28L18 27ZM21 27L21 28L23 28L23 27ZM34 28L34 29L36 29L36 28ZM12 29L12 31L13 31L13 29ZM29 29L29 32L32 32L32 29ZM30 30L30 31L31 31L31 30ZM35 30L35 31L36 31L36 30ZM9 33L9 34L10 34L10 33ZM29 34L29 35L30 35L30 34ZM13 35L13 36L14 36L14 35ZM0 0L0 7L7 7L7 0ZM1 1L1 6L6 6L6 1ZM2 2L2 5L5 5L5 2ZM30 0L30 7L37 7L37 0ZM31 1L31 6L36 6L36 1ZM32 2L32 5L35 5L35 2ZM0 30L0 37L7 37L7 30ZM1 31L1 36L6 36L6 31ZM2 32L2 35L5 35L5 32Z" fill="#000000"/></g></g></svg>
