<?xml version="1.0" encoding="UTF-8"?>
<svg xmlns="http://www.w3.org/2000/svg" version="1.1" width="200" height="200" viewBox="0 0 200 200"><rect x="0" y="0" width="200" height="200" fill="#ffffff"/><g transform="scale(6.061)"><g transform="translate(0,0)"><path fill-rule="evenodd" d="M8 0L8 3L9 3L9 2L10 2L10 4L11 4L11 5L10 5L10 7L11 7L11 9L10 9L10 12L9 12L9 11L8 11L8 10L6 10L6 9L7 9L7 8L6 8L6 9L5 9L5 8L2 8L2 9L4 9L4 10L0 10L0 14L2 14L2 15L1 15L1 17L3 17L3 16L4 16L4 17L5 17L5 18L4 18L4 19L5 19L5 18L6 18L6 19L9 19L9 20L11 20L11 21L12 21L12 23L13 23L13 22L15 22L15 24L14 24L14 25L15 25L15 26L16 26L16 27L17 27L17 29L18 29L18 31L19 31L19 32L16 32L16 31L15 31L15 32L14 32L14 30L16 30L16 28L15 28L15 27L14 27L14 26L11 26L11 25L13 25L13 24L11 24L11 23L10 23L10 21L9 21L9 23L7 23L7 22L5 22L5 20L4 20L4 22L3 22L3 20L2 20L2 21L0 21L0 25L1 25L1 22L2 22L2 23L3 23L3 25L4 25L4 24L5 24L5 25L7 25L7 24L10 24L10 27L12 27L12 28L14 28L14 30L13 30L13 32L12 32L12 31L11 31L11 32L10 32L10 31L9 31L9 30L11 30L11 28L8 28L8 31L9 31L9 33L11 33L11 32L12 32L12 33L13 33L13 32L14 32L14 33L15 33L15 32L16 32L16 33L19 33L19 32L20 32L20 31L21 31L21 32L23 32L23 33L25 33L25 32L23 32L23 31L24 31L24 29L28 29L28 30L29 30L29 33L30 33L30 32L31 32L31 33L32 33L32 32L31 32L31 29L32 29L32 30L33 30L33 28L31 28L31 27L32 27L32 26L33 26L33 23L32 23L32 22L33 22L33 20L32 20L32 18L33 18L33 17L31 17L31 18L30 18L30 19L29 19L29 18L28 18L28 20L27 20L27 21L26 21L26 19L27 19L27 18L26 18L26 16L27 16L27 15L28 15L28 14L27 14L27 13L29 13L29 14L30 14L30 15L29 15L29 16L28 16L28 17L29 17L29 16L31 16L31 15L32 15L32 16L33 16L33 15L32 15L32 14L33 14L33 11L32 11L32 10L33 10L33 8L30 8L30 10L29 10L29 12L27 12L27 13L26 13L26 12L25 12L25 11L28 11L28 10L27 10L27 9L28 9L28 8L24 8L24 7L25 7L25 3L24 3L24 2L21 2L21 1L22 1L22 0L17 0L17 1L19 1L19 2L20 2L20 4L19 4L19 3L17 3L17 5L18 5L18 7L17 7L17 6L16 6L16 7L15 7L15 5L13 5L13 4L14 4L14 2L15 2L15 1L16 1L16 0L14 0L14 1L13 1L13 0L12 0L12 1L11 1L11 2L10 2L10 1L9 1L9 0ZM23 0L23 1L25 1L25 0ZM12 1L12 2L11 2L11 4L13 4L13 1ZM21 3L21 4L20 4L20 5L19 5L19 7L18 7L18 8L19 8L19 9L18 9L18 10L15 10L15 9L17 9L17 8L13 8L13 7L14 7L14 6L13 6L13 5L11 5L11 7L12 7L12 10L11 10L11 12L10 12L10 13L11 13L11 14L10 14L10 15L11 15L11 17L8 17L8 16L9 16L9 14L8 14L8 13L6 13L6 12L7 12L7 11L6 11L6 12L5 12L5 10L4 10L4 12L2 12L2 14L3 14L3 13L4 13L4 15L5 15L5 14L8 14L8 15L6 15L6 16L5 16L5 17L6 17L6 18L7 18L7 17L8 17L8 18L11 18L11 17L12 17L12 21L15 21L15 22L17 22L17 25L18 25L18 27L19 27L19 25L18 25L18 24L20 24L20 26L21 26L21 25L22 25L22 27L23 27L23 26L24 26L24 25L22 25L22 24L23 24L23 23L24 23L24 24L27 24L27 23L28 23L28 24L29 24L29 27L30 27L30 26L32 26L32 25L31 25L31 24L29 24L29 22L30 22L30 23L31 23L31 22L30 22L30 21L32 21L32 20L30 20L30 21L27 21L27 22L26 22L26 21L24 21L24 22L23 22L23 19L24 19L24 18L23 18L23 17L22 17L22 16L21 16L21 15L22 15L22 13L23 13L23 12L24 12L24 14L23 14L23 15L24 15L24 16L25 16L25 14L26 14L26 15L27 15L27 14L26 14L26 13L25 13L25 12L24 12L24 11L25 11L25 9L24 9L24 10L23 10L23 12L21 12L21 11L22 11L22 8L23 8L23 7L24 7L24 5L23 5L23 7L22 7L22 3ZM8 5L8 9L9 9L9 5ZM12 6L12 7L13 7L13 6ZM20 6L20 7L21 7L21 8L20 8L20 10L19 10L19 11L20 11L20 10L21 10L21 8L22 8L22 7L21 7L21 6ZM31 9L31 10L30 10L30 11L31 11L31 10L32 10L32 9ZM12 10L12 12L14 12L14 11L15 11L15 12L16 12L16 13L14 13L14 14L13 14L13 13L12 13L12 14L13 14L13 16L12 16L12 17L13 17L13 16L14 16L14 17L16 17L16 18L15 18L15 19L13 19L13 20L15 20L15 19L16 19L16 18L17 18L17 19L18 19L18 20L19 20L19 18L17 18L17 17L16 17L16 16L18 16L18 17L20 17L20 14L21 14L21 13L17 13L17 12L18 12L18 11L15 11L15 10ZM29 12L29 13L31 13L31 14L32 14L32 13L31 13L31 12ZM14 14L14 15L18 15L18 16L19 16L19 15L18 15L18 14ZM2 15L2 16L3 16L3 15ZM6 16L6 17L7 17L7 16ZM21 17L21 20L20 20L20 21L17 21L17 22L19 22L19 23L21 23L21 24L22 24L22 23L23 23L23 22L22 22L22 21L21 21L21 20L22 20L22 19L23 19L23 18L22 18L22 17ZM0 18L0 20L1 20L1 18ZM2 18L2 19L3 19L3 18ZM25 18L25 19L26 19L26 18ZM6 20L6 21L8 21L8 20ZM20 21L20 22L21 22L21 23L22 23L22 22L21 22L21 21ZM4 22L4 23L5 23L5 24L7 24L7 23L5 23L5 22ZM15 24L15 25L16 25L16 24ZM8 25L8 26L9 26L9 25ZM25 25L25 28L28 28L28 25ZM26 26L26 27L27 27L27 26ZM20 27L20 29L21 29L21 27ZM22 28L22 31L23 31L23 29L24 29L24 28ZM29 28L29 30L30 30L30 29L31 29L31 28ZM25 30L25 31L26 31L26 32L28 32L28 31L27 31L27 30ZM0 0L0 7L7 7L7 0ZM1 1L1 6L6 6L6 1ZM2 2L2 5L5 5L5 2ZM26 0L26 7L33 7L33 0ZM27 1L27 6L32 6L32 1ZM28 2L28 5L31 5L31 2ZM0 26L0 33L7 33L7 26ZM1 27L1 32L6 32L6 27ZM2 28L2 31L5 31L5 28Z" fill="#000000"/></g></g></svg>
